<svg xmlns="http://www.w3.org/2000/svg" xmlns:xlink="http://www.w3.org/1999/xlink" viewBox="0 0 370.90909090909093 348" width="370.90909090909093" height="348"><path d="M 44.000,74.960 C 45.048,83.402 45.051,83.401 46.095,91.843" stroke-width="5.290" stroke="black" fill="none" stroke-linecap="round"></path><path d="M 46.095,91.843 C 46.579,95.755 46.546,95.759 47.056,99.667" stroke-width="4.124" stroke="black" fill="none" stroke-linecap="round"></path><path d="M 47.056,99.667 C 47.652,104.232 47.739,104.221 48.307,108.789" stroke-width="3.780" stroke="black" fill="none" stroke-linecap="round"></path><path d="M 48.307,108.789 C 49.039,114.669 48.937,114.682 49.655,120.565" stroke-width="3.441" stroke="black" fill="none" stroke-linecap="round"></path><path d="M 49.655,120.565 C 50.432,126.921 50.556,126.906 51.298,133.266" stroke-width="3.213" stroke="black" fill="none" stroke-linecap="round"></path><path d="M 51.298,133.266 C 52.104,140.169 52.076,140.173 52.750,147.091" stroke-width="3.068" stroke="black" fill="none" stroke-linecap="round"></path><path d="M 52.750,147.091 C 53.332,153.052 53.427,153.047 53.810,159.022" stroke-width="3.227" stroke="black" fill="none" stroke-linecap="round"></path><path d="M 53.810,159.022 C 54.201,165.135 54.057,165.145 54.299,171.268" stroke-width="3.198" stroke="black" fill="none" stroke-linecap="round"></path><path d="M 54.299,171.268 C 54.508,176.585 54.544,176.583 54.712,181.902" stroke-width="3.376" stroke="black" fill="none" stroke-linecap="round"></path><path d="M 54.712,181.902 C 54.866,186.798 54.860,186.799 54.943,191.697" stroke-width="3.454" stroke="black" fill="none" stroke-linecap="round"></path><path d="M 54.943,191.697 C 55.027,196.630 55.032,196.631 55.045,201.564" stroke-width="3.527" stroke="black" fill="none" stroke-linecap="round"></path><path d="M 55.045,201.564 C 55.059,206.610 55.136,206.613 54.997,211.656" stroke-width="3.472" stroke="black" fill="none" stroke-linecap="round"></path><path d="M 54.997,211.656 C 54.855,216.825 54.779,216.825 54.484,221.988" stroke-width="3.490" stroke="black" fill="none" stroke-linecap="round"></path><path d="M 54.484,221.988 C 54.222,226.569 54.135,226.564 53.882,231.145" stroke-width="3.549" stroke="black" fill="none" stroke-linecap="round"></path><path d="M 53.882,231.145 C 53.633,235.633 53.656,235.634 53.481,240.126" stroke-width="3.639" stroke="black" fill="none" stroke-linecap="round"></path><path d="M 53.481,240.126 C 53.317,244.332 53.299,244.332 53.203,248.539" stroke-width="3.672" stroke="black" fill="none" stroke-linecap="round"></path><path d="M 53.203,248.539 C 53.127,251.919 53.133,251.920 53.136,255.301" stroke-width="3.912" stroke="black" fill="none" stroke-linecap="round"></path><path d="M 53.136,255.301 C 53.139,258.382 53.169,258.382 53.215,261.464" stroke-width="4.061" stroke="black" fill="none" stroke-linecap="round"></path><path d="M 53.215,261.464 C 53.257,264.285 53.264,264.285 53.312,267.106" stroke-width="4.129" stroke="black" fill="none" stroke-linecap="round"></path><path d="M 53.312,267.106 C 53.384,271.300 53.425,271.300 53.455,275.495" stroke-width="4.372" stroke="black" fill="none" stroke-linecap="round"></path><path d="M 66.045,94.960 C 67.987,100.403 68.277,100.319 69.928,105.845" stroke-width="5.252" stroke="black" fill="none" stroke-linecap="round"></path><path d="M 69.928,105.845 C 71.082,109.711 70.804,109.791 71.656,113.743" stroke-width="4.211" stroke="black" fill="none" stroke-linecap="round"></path><path d="M 71.656,113.743 C 72.695,118.555 72.637,118.568 73.711,123.371" stroke-width="3.673" stroke="black" fill="none" stroke-linecap="round"></path><path d="M 73.711,123.371 C 74.816,128.311 74.998,128.273 76.015,133.230" stroke-width="3.510" stroke="black" fill="none" stroke-linecap="round"></path><path d="M 76.015,133.230 C 77.204,139.029 77.027,139.065 78.123,144.885" stroke-width="3.311" stroke="black" fill="none" stroke-linecap="round"></path><path d="M 78.123,144.885 C 79.143,150.299 79.252,150.279 80.246,155.698" stroke-width="3.382" stroke="black" fill="none" stroke-linecap="round"></path><path d="M 80.246,155.698 C 81.356,161.759 81.498,161.742 82.331,167.844" stroke-width="3.296" stroke="black" fill="none" stroke-linecap="round"></path><path d="M 82.331,167.844 C 83.217,174.333 83.200,174.347 83.684,180.879" stroke-width="3.151" stroke="black" fill="none" stroke-linecap="round"></path><path d="M 83.684,180.879 C 84.228,188.203 84.164,188.214 84.387,195.555" stroke-width="3.056" stroke="black" fill="none" stroke-linecap="round"></path><path d="M 84.387,195.555 C 84.572,201.667 84.492,201.671 84.500,207.787" stroke-width="3.204" stroke="black" fill="none" stroke-linecap="round"></path><path d="M 84.500,207.787 C 84.507,213.303 84.611,213.309 84.416,218.819" stroke-width="3.346" stroke="black" fill="none" stroke-linecap="round"></path><path d="M 84.416,218.819 C 84.240,223.806 84.184,223.809 83.757,228.781" stroke-width="3.532" stroke="black" fill="none" stroke-linecap="round"></path><path d="M 83.757,228.781 C 83.383,233.133 83.295,233.125 82.814,237.468" stroke-width="3.658" stroke="black" fill="none" stroke-linecap="round"></path><path d="M 82.814,237.468 C 82.393,241.273 82.347,241.268 81.955,245.077" stroke-width="3.810" stroke="black" fill="none" stroke-linecap="round"></path><path d="M 81.955,245.077 C 81.646,248.067 81.713,248.074 81.412,251.065" stroke-width="4.045" stroke="black" fill="none" stroke-linecap="round"></path><path d="M 81.412,251.065 C 80.954,255.626 80.987,255.630 80.437,260.180" stroke-width="4.325" stroke="black" fill="none" stroke-linecap="round"></path><path d="M 80.437,260.180 C 79.990,263.886 79.872,263.871 79.417,267.576" stroke-width="4.505" stroke="black" fill="none" stroke-linecap="round"></path><path d="M 79.417,267.576 C 78.980,271.132 79.032,271.139 78.653,274.702" stroke-width="4.550" stroke="black" fill="none" stroke-linecap="round"></path><path d="M 78.653,274.702 C 78.349,277.561 78.373,277.563 78.050,280.420" stroke-width="4.716" stroke="black" fill="none" stroke-linecap="round"></path><path d="M 17.864,95.960 C 32.489,93.077 32.502,93.137 47.115,90.193" stroke-width="4.117" stroke="black" fill="none" stroke-linecap="round"></path><path d="M 47.115,90.193 C 57.800,88.041 57.732,87.662 68.461,85.767" stroke-width="2.726" stroke="black" fill="none" stroke-linecap="round"></path><path d="M 68.461,85.767 C 78.221,84.043 78.252,84.157 88.091,82.957" stroke-width="2.572" stroke="black" fill="none" stroke-linecap="round"></path><path d="M 88.091,82.957 C 96.001,81.993 96.020,82.135 103.959,81.438" stroke-width="2.795" stroke="black" fill="none" stroke-linecap="round"></path><path d="M 103.959,81.438 C 110.367,80.875 110.367,80.593 116.786,80.438" stroke-width="3.068" stroke="black" fill="none" stroke-linecap="round"></path><path d="M 116.786,80.438 C 121.845,80.316 121.871,80.439 126.916,80.884" stroke-width="3.321" stroke="black" fill="none" stroke-linecap="round"></path><path d="M 126.916,80.884 C 131.281,81.268 131.382,81.044 135.606,82.094" stroke-width="3.584" stroke="black" fill="none" stroke-linecap="round"></path><path d="M 135.606,82.094 C 138.623,82.844 138.692,82.961 141.399,84.484" stroke-width="3.937" stroke="black" fill="none" stroke-linecap="round"></path><path d="M 141.399,84.484 C 143.637,85.744 144.246,85.494 145.495,87.659" stroke-width="4.150" stroke="black" fill="none" stroke-linecap="round"></path><path d="M 145.495,87.659 C 148.092,92.160 148.657,92.672 149.091,97.816" stroke-width="4.234" stroke="black" fill="none" stroke-linecap="round"></path><path d="M 149.091,97.816 C 149.432,101.855 148.536,102.092 147.045,106.026" stroke-width="3.940" stroke="black" fill="none" stroke-linecap="round"></path><path d="M 147.045,106.026 C 145.173,110.966 144.899,110.899 142.364,115.563" stroke-width="3.593" stroke="black" fill="none" stroke-linecap="round"></path><path d="M 142.364,115.563 C 139.069,121.622 139.045,121.624 135.385,127.471" stroke-width="3.296" stroke="black" fill="none" stroke-linecap="round"></path><path d="M 135.385,127.471 C 131.574,133.559 131.604,133.595 127.422,139.433" stroke-width="3.119" stroke="black" fill="none" stroke-linecap="round"></path><path d="M 127.422,139.433 C 122.666,146.073 122.521,145.973 117.509,152.427" stroke-width="2.876" stroke="black" fill="none" stroke-linecap="round"></path><path d="M 117.509,152.427 C 113.184,157.996 113.274,158.075 108.748,163.480" stroke-width="2.954" stroke="black" fill="none" stroke-linecap="round"></path><path d="M 108.748,163.480 C 104.048,169.092 104.063,169.123 99.057,174.461" stroke-width="2.942" stroke="black" fill="none" stroke-linecap="round"></path><path d="M 99.057,174.461 C 95.060,178.724 94.991,178.669 90.741,182.682" stroke-width="3.205" stroke="black" fill="none" stroke-linecap="round"></path><path d="M 90.741,182.682 C 87.077,186.143 87.217,186.351 83.229,189.408" stroke-width="3.373" stroke="black" fill="none" stroke-linecap="round"></path><path d="M 83.229,189.408 C 79.630,192.167 79.523,192.088 75.566,194.313" stroke-width="3.519" stroke="black" fill="none" stroke-linecap="round"></path><path d="M 75.566,194.313 C 72.254,196.176 72.113,195.918 68.690,197.586" stroke-width="3.767" stroke="black" fill="none" stroke-linecap="round"></path><path d="M 68.690,197.586 C 65.091,199.339 65.157,199.481 61.523,201.156" stroke-width="3.754" stroke="black" fill="none" stroke-linecap="round"></path><path d="M 61.523,201.156 C 58.322,202.632 58.314,202.634 55.020,203.888" stroke-width="3.907" stroke="black" fill="none" stroke-linecap="round"></path><path d="M 55.020,203.888 C 51.667,205.164 51.644,205.113 48.229,206.215" stroke-width="3.940" stroke="black" fill="none" stroke-linecap="round"></path><path d="M 48.229,206.215 C 44.624,207.379 39.883,209.077 40.980,208.422" stroke-width="4.347" stroke="black" fill="none" stroke-linecap="round"></path><path d="M 40.980,208.422 C 43.170,207.114 47.968,205.517 54.803,202.289" stroke-width="4.756" stroke="black" fill="none" stroke-linecap="round"></path><path d="M 54.803,202.289 C 62.217,198.788 62.057,198.448 69.477,194.964" stroke-width="3.251" stroke="black" fill="none" stroke-linecap="round"></path><path d="M 69.477,194.964 C 76.446,191.691 76.503,191.807 83.582,188.775" stroke-width="2.972" stroke="black" fill="none" stroke-linecap="round"></path><path d="M 83.582,188.775 C 90.571,185.782 90.558,185.744 97.613,182.914" stroke-width="2.970" stroke="black" fill="none" stroke-linecap="round"></path><path d="M 97.613,182.914 C 103.692,180.477 103.670,180.394 109.852,178.242" stroke-width="3.112" stroke="black" fill="none" stroke-linecap="round"></path><path d="M 109.852,178.242 C 114.744,176.538 114.779,176.624 119.762,175.202" stroke-width="3.317" stroke="black" fill="none" stroke-linecap="round"></path><path d="M 119.762,175.202 C 123.701,174.078 123.698,174.038 127.695,173.149" stroke-width="3.589" stroke="black" fill="none" stroke-linecap="round"></path><path d="M 127.695,173.149 C 131.321,172.343 131.325,172.261 135.008,171.811" stroke-width="3.810" stroke="black" fill="none" stroke-linecap="round"></path><path d="M 135.008,171.811 C 138.427,171.393 138.454,171.437 141.899,171.415" stroke-width="3.893" stroke="black" fill="none" stroke-linecap="round"></path><path d="M 141.899,171.415 C 144.532,171.398 144.581,171.261 147.165,171.733" stroke-width="4.164" stroke="black" fill="none" stroke-linecap="round"></path><path d="M 147.165,171.733 C 151.600,172.543 151.777,172.300 155.936,173.980" stroke-width="4.336" stroke="black" fill="none" stroke-linecap="round"></path><path d="M 155.936,173.980 C 159.970,175.609 160.109,175.707 163.552,178.352" stroke-width="4.410" stroke="black" fill="none" stroke-linecap="round"></path><path d="M 163.552,178.352 C 166.310,180.470 167.174,180.373 168.339,183.505" stroke-width="4.566" stroke="black" fill="none" stroke-linecap="round"></path><path d="M 168.339,183.505 C 170.105,188.253 169.828,188.889 169.414,194.111" stroke-width="4.341" stroke="black" fill="none" stroke-linecap="round"></path><path d="M 169.414,194.111 C 169.024,199.027 168.518,199.110 166.730,203.781" stroke-width="3.745" stroke="black" fill="none" stroke-linecap="round"></path><path d="M 166.730,203.781 C 164.293,210.151 164.090,210.111 160.965,216.192" stroke-width="3.216" stroke="black" fill="none" stroke-linecap="round"></path><path d="M 160.965,216.192 C 157.655,222.634 157.902,222.841 153.860,228.828" stroke-width="3.088" stroke="black" fill="none" stroke-linecap="round"></path><path d="M 153.860,228.828 C 149.897,234.698 149.645,234.579 144.955,239.906" stroke-width="3.011" stroke="black" fill="none" stroke-linecap="round"></path><path d="M 144.955,239.906 C 141.441,243.898 141.397,243.900 137.452,247.466" stroke-width="3.311" stroke="black" fill="none" stroke-linecap="round"></path><path d="M 137.452,247.466 C 133.753,250.810 133.802,250.953 129.668,253.725" stroke-width="3.416" stroke="black" fill="none" stroke-linecap="round"></path><path d="M 129.668,253.725 C 125.041,256.829 124.908,256.686 119.931,259.218" stroke-width="3.400" stroke="black" fill="none" stroke-linecap="round"></path><path d="M 119.931,259.218 C 115.244,261.603 115.220,261.599 110.340,263.558" stroke-width="3.395" stroke="black" fill="none" stroke-linecap="round"></path><path d="M 110.340,263.558 C 105.250,265.601 105.216,265.549 99.991,267.223" stroke-width="3.411" stroke="black" fill="none" stroke-linecap="round"></path><path d="M 99.991,267.223 C 95.378,268.701 95.358,268.659 90.665,269.862" stroke-width="3.475" stroke="black" fill="none" stroke-linecap="round"></path><path d="M 90.665,269.862 C 86.001,271.058 85.989,271.028 81.276,272.020" stroke-width="3.555" stroke="black" fill="none" stroke-linecap="round"></path><path d="M 81.276,272.020 C 76.898,272.941 76.891,272.919 72.483,273.688" stroke-width="3.645" stroke="black" fill="none" stroke-linecap="round"></path><path d="M 72.483,273.688 C 69.038,274.290 69.033,274.271 65.570,274.763" stroke-width="3.829" stroke="black" fill="none" stroke-linecap="round"></path><path d="M 65.570,274.763 C 63.088,275.115 63.055,274.918 60.593,275.375" stroke-width="4.136" stroke="black" fill="none" stroke-linecap="round"></path><path d="M 60.593,275.375 C 56.982,276.045 56.931,275.945 53.423,277.016" stroke-width="4.510" stroke="black" fill="none" stroke-linecap="round"></path><path d="M 53.423,277.016 C 50.232,277.990 45.532,280.716 47.195,279.464" stroke-width="4.625" stroke="black" fill="none" stroke-linecap="round"></path><path d="M 47.195,279.464 C 54.211,274.184 58.912,271.589 70.782,263.952" stroke-width="4.786" stroke="black" fill="none" stroke-linecap="round"></path><path d="M 70.782,263.952 C 76.943,259.987 76.959,260.006 83.257,256.261" stroke-width="3.321" stroke="black" fill="none" stroke-linecap="round"></path><path d="M 83.257,256.261 C 90.081,252.204 90.031,252.100 97.025,248.347" stroke-width="3.021" stroke="black" fill="none" stroke-linecap="round"></path><path d="M 97.025,248.347 C 104.520,244.326 104.571,244.409 112.235,240.713" stroke-width="2.808" stroke="black" fill="none" stroke-linecap="round"></path><path d="M 112.235,240.713 C 120.026,236.956 120.147,237.207 127.934,233.442" stroke-width="2.733" stroke="black" fill="none" stroke-linecap="round"></path><path d="M 127.934,233.442 C 136.279,229.408 136.414,229.637 144.500,225.116" stroke-width="2.703" stroke="black" fill="none" stroke-linecap="round"></path><path d="M 144.500,225.116 C 155.629,218.894 155.622,218.833 166.364,211.956" stroke-width="2.368" stroke="black" fill="none" stroke-linecap="round"></path><path d="M 166.364,211.956 C 177.450,204.860 177.069,204.260 188.156,197.169" stroke-width="2.193" stroke="black" fill="none" stroke-linecap="round"></path><path d="M 188.156,197.169 C 195.520,192.459 195.607,192.569 203.266,188.355" stroke-width="2.569" stroke="black" fill="none" stroke-linecap="round"></path><path d="M 203.266,188.355 C 207.769,185.878 207.821,185.956 212.480,183.786" stroke-width="3.113" stroke="black" fill="none" stroke-linecap="round"></path><path d="M 212.480,183.786 C 215.054,182.588 217.778,179.828 217.733,181.619" stroke-width="3.811" stroke="black" fill="none" stroke-linecap="round"></path><path d="M 217.733,181.619 C 217.588,187.301 215.467,190.402 212.100,198.734" stroke-width="4.681" stroke="black" fill="none" stroke-linecap="round"></path><path d="M 212.100,198.734 C 209.066,206.244 208.307,205.924 204.931,213.304" stroke-width="3.253" stroke="black" fill="none" stroke-linecap="round"></path><path d="M 204.931,213.304 C 202.141,219.400 202.341,219.492 199.767,225.686" stroke-width="3.176" stroke="black" fill="none" stroke-linecap="round"></path><path d="M 199.767,225.686 C 197.831,230.346 197.905,230.377 195.910,235.012" stroke-width="3.363" stroke="black" fill="none" stroke-linecap="round"></path><path d="M 195.910,235.012 C 194.169,239.059 194.046,239.006 192.295,243.049" stroke-width="3.595" stroke="black" fill="none" stroke-linecap="round"></path><path d="M 192.295,243.049 C 191.188,245.605 191.114,245.583 190.195,248.209" stroke-width="3.980" stroke="black" fill="none" stroke-linecap="round"></path><path d="M 190.195,248.209 C 189.213,251.013 187.123,254.784 188.494,253.908" stroke-width="4.500" stroke="black" fill="none" stroke-linecap="round"></path><path d="M 188.494,253.908 C 192.652,251.250 195.238,247.842 201.252,241.141" stroke-width="4.747" stroke="black" fill="none" stroke-linecap="round"></path><path d="M 201.252,241.141 C 204.942,237.028 204.638,236.756 207.901,232.281" stroke-width="3.785" stroke="black" fill="none" stroke-linecap="round"></path><path d="M 207.901,232.281 C 210.894,228.177 210.839,228.137 213.763,223.983" stroke-width="3.596" stroke="black" fill="none" stroke-linecap="round"></path><path d="M 213.763,223.983 C 216.179,220.552 216.069,220.470 218.582,217.112" stroke-width="3.761" stroke="black" fill="none" stroke-linecap="round"></path><path d="M 218.582,217.112 C 220.651,214.346 220.744,214.415 222.927,211.736" stroke-width="3.924" stroke="black" fill="none" stroke-linecap="round"></path><path d="M 222.927,211.736 C 224.878,209.341 224.817,209.287 226.850,206.964" stroke-width="4.063" stroke="black" fill="none" stroke-linecap="round"></path><path d="M 226.850,206.964 C 228.710,204.838 228.651,204.766 230.713,202.838" stroke-width="4.173" stroke="black" fill="none" stroke-linecap="round"></path><path d="M 230.713,202.838 C 234.072,199.697 233.936,199.451 237.692,196.828" stroke-width="4.307" stroke="black" fill="none" stroke-linecap="round"></path><path d="M 237.692,196.828 C 241.393,194.242 241.545,194.371 245.626,192.419" stroke-width="4.399" stroke="black" fill="none" stroke-linecap="round"></path><path d="M 245.626,192.419 C 248.009,191.279 249.471,189.524 250.621,190.645" stroke-width="4.689" stroke="black" fill="none" stroke-linecap="round"></path><path d="M 250.621,190.645 C 252.133,192.120 251.341,194.201 250.951,197.610" stroke-width="5.022" stroke="black" fill="none" stroke-linecap="round"></path><path d="M 250.951,197.610 C 250.629,200.417 250.256,200.415 249.199,203.077" stroke-width="4.467" stroke="black" fill="none" stroke-linecap="round"></path><path d="M 249.199,203.077 C 248.145,205.731 248.064,205.711 246.728,208.240" stroke-width="4.326" stroke="black" fill="none" stroke-linecap="round"></path><path d="M 246.728,208.240 C 245.083,211.355 244.906,211.261 243.237,214.365" stroke-width="4.075" stroke="black" fill="none" stroke-linecap="round"></path><path d="M 243.237,214.365 C 240.672,219.134 240.691,219.147 238.262,223.987" stroke-width="3.542" stroke="black" fill="none" stroke-linecap="round"></path><path d="M 238.262,223.987 C 234.841,230.804 234.863,230.816 231.537,237.680" stroke-width="3.236" stroke="black" fill="none" stroke-linecap="round"></path><path d="M 231.537,237.680 C 228.844,243.237 228.870,243.249 226.225,248.828" stroke-width="3.251" stroke="black" fill="none" stroke-linecap="round"></path><path d="M 226.225,248.828 C 224.393,252.694 224.461,252.727 222.582,256.570" stroke-width="3.530" stroke="black" fill="none" stroke-linecap="round"></path><path d="M 222.582,256.570 C 221.426,258.934 219.680,261.778 220.155,261.241" stroke-width="4.362" stroke="black" fill="none" stroke-linecap="round"></path><path d="M 220.155,261.241 C 220.978,260.312 222.552,257.359 225.178,253.637" stroke-width="4.809" stroke="black" fill="none" stroke-linecap="round"></path><path d="M 225.178,253.637 C 229.332,247.750 229.218,247.650 233.715,242.022" stroke-width="3.345" stroke="black" fill="none" stroke-linecap="round"></path><path d="M 233.715,242.022 C 240.415,233.635 240.451,233.645 247.572,225.608" stroke-width="2.623" stroke="black" fill="none" stroke-linecap="round"></path><path d="M 247.572,225.608 C 254.804,217.445 255.064,217.677 262.420,209.623" stroke-width="2.509" stroke="black" fill="none" stroke-linecap="round"></path><path d="M 262.420,209.623 C 267.353,204.222 267.243,204.122 272.149,198.698" stroke-width="2.848" stroke="black" fill="none" stroke-linecap="round"></path><path d="M 272.149,198.698 C 275.352,195.157 275.438,195.235 278.640,191.693" stroke-width="3.289" stroke="black" fill="none" stroke-linecap="round"></path><path d="M 278.640,191.693 C 280.686,189.430 280.737,189.466 282.644,187.088" stroke-width="3.801" stroke="black" fill="none" stroke-linecap="round"></path><path d="M 282.644,187.088 C 284.270,185.060 285.339,182.387 285.705,182.880" stroke-width="4.484" stroke="black" fill="none" stroke-linecap="round"></path><path d="M 285.705,182.880 C 286.169,183.506 285.176,186.149 284.304,189.327" stroke-width="5.063" stroke="black" fill="none" stroke-linecap="round"></path><path d="M 284.304,189.327 C 282.757,194.967 282.645,194.941 280.866,200.518" stroke-width="3.712" stroke="black" fill="none" stroke-linecap="round"></path><path d="M 280.866,200.518 C 278.037,209.385 278.066,209.396 275.090,218.214" stroke-width="2.857" stroke="black" fill="none" stroke-linecap="round"></path><path d="M 275.090,218.214 C 272.611,225.560 272.420,225.497 269.955,232.846" stroke-width="2.857" stroke="black" fill="none" stroke-linecap="round"></path><path d="M 269.955,232.846 C 268.483,237.233 268.396,237.219 267.216,241.687" stroke-width="3.317" stroke="black" fill="none" stroke-linecap="round"></path><path d="M 267.216,241.687 C 266.473,244.499 266.652,244.545 266.110,247.406" stroke-width="3.883" stroke="black" fill="none" stroke-linecap="round"></path><path d="M 266.110,247.406 C 265.496,250.643 263.292,254.750 264.902,253.883" stroke-width="4.414" stroke="black" fill="none" stroke-linecap="round"></path><path d="M 264.902,253.883 C 269.569,251.371 272.771,248.044 278.664,240.648" stroke-width="4.835" stroke="black" fill="none" stroke-linecap="round"></path><path d="M 278.664,240.648 C 284.097,233.830 283.237,233.123 287.555,225.455" stroke-width="3.171" stroke="black" fill="none" stroke-linecap="round"></path><path d="M 287.555,225.455 C 291.170,219.037 291.177,219.034 294.529,212.475" stroke-width="2.997" stroke="black" fill="none" stroke-linecap="round"></path><path d="M 294.529,212.475 C 298.119,205.452 298.103,205.438 301.438,198.290" stroke-width="2.941" stroke="black" fill="none" stroke-linecap="round"></path><path d="M 301.438,198.290 C 303.953,192.898 303.996,192.907 306.229,187.396" stroke-width="3.189" stroke="black" fill="none" stroke-linecap="round"></path><path d="M 306.229,187.396 C 307.573,184.078 307.599,184.069 308.594,180.634" stroke-width="3.647" stroke="black" fill="none" stroke-linecap="round"></path><path d="M 308.594,180.634 C 309.586,177.207 309.552,177.182 310.203,173.672" stroke-width="4.280" stroke="black" fill="none" stroke-linecap="round"></path><path d="M 310.203,173.672 C 311.061,169.046 310.948,169.023 311.612,164.363" stroke-width="4.716" stroke="black" fill="none" stroke-linecap="round"></path><path d="M 311.612,164.363 C 312.005,161.605 313.136,161.305 312.318,158.837" stroke-width="5.032" stroke="black" fill="none" stroke-linecap="round"></path><path d="M 312.318,158.837 C 311.120,155.221 310.509,154.836 307.580,152.194" stroke-width="5.258" stroke="black" fill="none" stroke-linecap="round"></path><path d="M 307.580,152.194 C 305.487,150.306 305.037,150.670 302.274,149.776" stroke-width="4.408" stroke="black" fill="none" stroke-linecap="round"></path><path d="M 302.274,149.776 C 297.485,148.226 297.459,147.861 292.475,147.307" stroke-width="3.753" stroke="black" fill="none" stroke-linecap="round"></path><path d="M 292.475,147.307 C 286.286,146.620 286.189,147.017 279.927,147.294" stroke-width="3.311" stroke="black" fill="none" stroke-linecap="round"></path><path d="M 279.927,147.294 C 273.272,147.588 273.277,147.801 266.642,148.450" stroke-width="3.198" stroke="black" fill="none" stroke-linecap="round"></path><path d="M 266.642,148.450 C 260.654,149.035 260.666,149.154 254.680,149.761" stroke-width="3.207" stroke="black" fill="none" stroke-linecap="round"></path><path d="M 254.680,149.761 C 248.352,150.403 248.344,150.329 242.014,150.949" stroke-width="3.214" stroke="black" fill="none" stroke-linecap="round"></path><path d="M 242.014,150.949 C 236.734,151.466 236.746,151.619 231.459,152.034" stroke-width="3.330" stroke="black" fill="none" stroke-linecap="round"></path><path d="M 231.459,152.034 C 227.555,152.340 227.545,152.194 223.633,152.390" stroke-width="3.678" stroke="black" fill="none" stroke-linecap="round"></path><path d="M 223.633,152.390 C 219.801,152.581 215.900,153.338 215.970,152.809" stroke-width="4.256" stroke="black" fill="none" stroke-linecap="round"></path><path d="M 215.970,152.809 C 216.047,152.231 219.875,151.217 223.929,150.175" stroke-width="4.956" stroke="black" fill="none" stroke-linecap="round"></path><path d="M 223.929,150.175 C 230.106,148.588 230.158,148.747 236.431,147.550" stroke-width="3.659" stroke="black" fill="none" stroke-linecap="round"></path><path d="M 236.431,147.550 C 243.990,146.109 244.008,146.203 251.592,144.898" stroke-width="3.134" stroke="black" fill="none" stroke-linecap="round"></path><path d="M 251.592,144.898 C 259.090,143.608 259.079,143.534 266.595,142.361" stroke-width="2.954" stroke="black" fill="none" stroke-linecap="round"></path><path d="M 266.595,142.361 C 272.941,141.371 272.951,141.427 279.317,140.571" stroke-width="3.125" stroke="black" fill="none" stroke-linecap="round"></path><path d="M 279.317,140.571 C 284.282,139.903 284.282,139.895 289.257,139.313" stroke-width="3.294" stroke="black" fill="none" stroke-linecap="round"></path><path d="M 289.257,139.313 C 292.929,138.883 292.936,138.942 296.612,138.547" stroke-width="3.709" stroke="black" fill="none" stroke-linecap="round"></path><path d="M 296.612,138.547 C 301.401,138.033 301.458,138.340 306.188,137.495" stroke-width="4.077" stroke="black" fill="none" stroke-linecap="round"></path><path d="M 306.188,137.495 C 310.259,136.768 310.317,136.782 314.212,135.404" stroke-width="4.379" stroke="black" fill="none" stroke-linecap="round"></path><path d="M 314.212,135.404 C 318.286,133.962 318.411,134.040 322.125,131.855" stroke-width="4.468" stroke="black" fill="none" stroke-linecap="round"></path><path d="M 322.125,131.855 C 325.734,129.732 325.660,129.512 328.859,126.786" stroke-width="4.457" stroke="black" fill="none" stroke-linecap="round"></path><path d="M 328.859,126.786 C 330.857,125.084 331.066,125.153 332.518,123.000" stroke-width="4.739" stroke="black" fill="none" stroke-linecap="round"></path><path d="M 332.518,123.000 C 334.144,120.589 334.455,120.495 335.015,117.658" stroke-width="4.940" stroke="black" fill="none" stroke-linecap="round"></path><path d="M 335.015,117.658 C 335.860,113.379 335.459,113.199 335.327,108.770" stroke-width="4.572" stroke="black" fill="none" stroke-linecap="round"></path><path d="M 335.327,108.770 C 335.246,106.040 335.114,106.023 334.590,103.338" stroke-width="4.298" stroke="black" fill="none" stroke-linecap="round"></path><path d="M 334.590,103.338 C 334.103,100.843 334.102,100.823 333.307,98.408" stroke-width="4.319" stroke="black" fill="none" stroke-linecap="round"></path><path d="M 333.307,98.408 C 332.432,95.753 332.407,95.746 331.250,93.198" stroke-width="4.257" stroke="black" fill="none" stroke-linecap="round"></path><path d="M 331.250,93.198 C 329.872,90.165 329.780,90.204 328.237,87.248" stroke-width="4.052" stroke="black" fill="none" stroke-linecap="round"></path><path d="M 328.237,87.248 C 326.606,84.123 326.672,84.082 324.901,81.037" stroke-width="3.948" stroke="black" fill="none" stroke-linecap="round"></path><path d="M 324.901,81.037 C 323.459,78.558 323.491,78.521 321.810,76.201" stroke-width="4.080" stroke="black" fill="none" stroke-linecap="round"></path><path d="M 321.810,76.201 C 319.974,73.666 320.354,72.972 317.866,71.327" stroke-width="4.512" stroke="black" fill="none" stroke-linecap="round"></path><path d="M 317.866,71.327 C 315.489,69.754 314.698,69.244 312.081,69.766" stroke-width="5.063" stroke="black" fill="none" stroke-linecap="round"></path><path d="M 312.081,69.766 C 309.577,70.266 309.220,71.096 307.625,73.370" stroke-width="5.141" stroke="black" fill="none" stroke-linecap="round"></path><path d="M 307.625,73.370 C 305.626,76.219 305.821,76.571 304.894,80.012" stroke-width="4.992" stroke="black" fill="none" stroke-linecap="round"></path><path d="M 304.894,80.012 C 303.933,83.577 304.197,83.679 303.848,87.381" stroke-width="4.739" stroke="black" fill="none" stroke-linecap="round"></path><path d="M 303.848,87.381 C 303.405,92.078 303.618,92.098 303.311,96.809" stroke-width="4.477" stroke="black" fill="none" stroke-linecap="round"></path><path d="M 303.311,96.809 C 303.132,99.553 303.132,99.554 302.876,102.292" stroke-width="4.269" stroke="black" fill="none" stroke-linecap="round"></path><path d="M 302.876,102.292 C 302.618,105.057 302.648,105.062 302.282,107.814" stroke-width="4.249" stroke="black" fill="none" stroke-linecap="round"></path><path d="M 302.282,107.814 C 301.698,112.213 301.860,112.253 300.975,116.594" stroke-width="4.395" stroke="black" fill="none" stroke-linecap="round"></path><path d="M 300.975,116.594 C 300.307,119.867 300.018,119.802 299.176,123.041" stroke-width="4.572" stroke="black" fill="none" stroke-linecap="round"></path><path d="M 299.176,123.041 C 298.308,126.378 298.293,126.377 297.556,129.745" stroke-width="4.660" stroke="black" fill="none" stroke-linecap="round"></path><path d="M 297.556,129.745 C 296.870,132.877 296.962,132.897 296.329,136.041" stroke-width="4.710" stroke="black" fill="none" stroke-linecap="round"></path><path d="M 296.329,136.041 C 295.792,138.710 295.625,138.684 295.218,141.372" stroke-width="4.778" stroke="black" fill="none" stroke-linecap="round"></path><path d="M 295.218,141.372 C 294.801,144.126 294.798,144.142 294.682,146.925" stroke-width="4.801" stroke="black" fill="none" stroke-linecap="round"></path><path d="M 294.682,146.925 C 294.566,149.692 294.601,149.705 294.754,152.470" stroke-width="4.811" stroke="black" fill="none" stroke-linecap="round"></path><path d="M 294.754,152.470 C 294.893,154.989 294.999,154.984 295.266,157.495" stroke-width="4.844" stroke="black" fill="none" stroke-linecap="round"></path><path d="M 295.266,157.495 C 295.600,160.623 295.681,160.616 295.955,163.749" stroke-width="4.950" stroke="black" fill="none" stroke-linecap="round"></path><path d="M 295.955,163.749 C 296.206,166.629 296.189,166.633 296.318,169.522" stroke-width="5.006" stroke="black" fill="none" stroke-linecap="round"></path><path d="M 296.318,169.522 C 296.461,172.710 296.370,172.714 296.499,175.903" stroke-width="4.986" stroke="black" fill="none" stroke-linecap="round"></path><path d="M 296.499,175.903 C 296.620,178.931 296.723,178.927 296.818,181.956" stroke-width="5.007" stroke="black" fill="none" stroke-linecap="round"></path><path d="M 296.818,181.956 C 296.928,185.454 296.862,185.456 296.909,188.955" stroke-width="4.964" stroke="black" fill="none" stroke-linecap="round"></path><path d="M 296.909,188.955 C 296.954,192.242 296.785,192.253 297.003,195.528" stroke-width="4.961" stroke="black" fill="none" stroke-linecap="round"></path><path d="M 297.003,195.528 C 297.226,198.894 297.401,198.882 297.791,202.236" stroke-width="4.957" stroke="black" fill="none" stroke-linecap="round"></path><path d="M 297.791,202.236 C 298.206,205.796 298.121,205.807 298.613,209.356" stroke-width="4.948" stroke="black" fill="none" stroke-linecap="round"></path><path d="M 298.613,209.356 C 299.306,214.348 299.560,214.317 300.163,219.319" stroke-width="4.846" stroke="black" fill="none" stroke-linecap="round"></path><path d="M 300.163,219.319 C 300.753,224.219 300.666,224.235 301.000,229.161" stroke-width="4.885" stroke="black" fill="none" stroke-linecap="round"></path><path d="M 301.000,229.161 C 301.199,232.085 301.174,232.090 301.229,235.021" stroke-width="4.838" stroke="black" fill="none" stroke-linecap="round"></path><path d="M 301.229,235.021 C 301.287,238.143 301.316,238.146 301.227,241.268" stroke-width="4.762" stroke="black" fill="none" stroke-linecap="round"></path><path d="M 301.227,241.268 C 301.121,245.020 301.104,245.023 300.840,248.769" stroke-width="4.634" stroke="black" fill="none" stroke-linecap="round"></path><path d="M 300.840,248.769 C 300.570,252.609 300.567,252.611 300.159,256.438" stroke-width="4.601" stroke="black" fill="none" stroke-linecap="round"></path><path d="M 300.159,256.438 C 299.670,261.023 299.571,261.012 299.046,265.593" stroke-width="4.434" stroke="black" fill="none" stroke-linecap="round"></path><path d="M 299.046,265.593 C 298.736,268.293 298.788,268.299 298.489,270.999" stroke-width="4.313" stroke="black" fill="none" stroke-linecap="round"></path><path d="M 298.489,270.999 C 298.214,273.495 298.218,273.496 297.898,275.986" stroke-width="4.333" stroke="black" fill="none" stroke-linecap="round"></path><path d="M 297.898,275.986 C 297.428,279.655 297.523,279.673 296.910,283.318" stroke-width="4.513" stroke="black" fill="none" stroke-linecap="round"></path><path d="M 296.910,283.318 C 296.449,286.061 296.270,286.028 295.751,288.762" stroke-width="4.719" stroke="black" fill="none" stroke-linecap="round"></path><path d="M 295.751,288.762 C 295.175,291.799 295.249,291.813 294.721,294.860" stroke-width="4.909" stroke="black" fill="none" stroke-linecap="round"></path></svg>